HIERARCHY
ROOT Hips
{
	OFFSET 0.000000 0.000000 0.000000
	CHANNELS 6 Xposition Yposition Zposition Zrotation Yrotation Xrotation 
	JOINT LHipJoint
	{
		OFFSET 0.000000 0.000000 0.000000
		CHANNELS 3 Zrotation Yrotation Xrotation
		JOINT LeftUpLeg
		{
			OFFSET 1.363060 -1.794630 0.839290
			CHANNELS 3 Zrotation Yrotation Xrotation
			JOINT LeftLeg
			{
				OFFSET 2.448110 -6.726130 0.000000
				CHANNELS 3 Zrotation Yrotation Xrotation
				JOINT LeftFoot
				{
					OFFSET 2.562200 -7.039590 0.000000
					CHANNELS 3 Zrotation Yrotation Xrotation
					JOINT LeftToeBase
					{
						OFFSET 0.157640 -0.433110 2.322550
						CHANNELS 3 Zrotation Yrotation Xrotation
						End Site
						{
							OFFSET 0.000000 0.000000 0.000000
						}
					}
				}
			}
		}
	}
	JOINT RHipJoint
	{
		OFFSET 0.000000 0.000000 0.000000
		CHANNELS 3 Zrotation Yrotation Xrotation
		JOINT RightUpLeg
		{
			OFFSET -1.305520 -1.794630 0.839290
			CHANNELS 3 Zrotation Yrotation Xrotation
			JOINT RightLeg
			{
				OFFSET -2.542530 -6.985550 0.000000
				CHANNELS 3 Zrotation Yrotation Xrotation
				JOINT RightFoot
				{
					OFFSET -2.568260 -7.056230 0.000000
					CHANNELS 3 Zrotation Yrotation Xrotation
					JOINT RightToeBase
					{
						OFFSET -0.164730 -0.452590 2.363150
						CHANNELS 3 Zrotation Yrotation Xrotation
						End Site
						{
							OFFSET 0.000000 0.000000 0.000000
						}
					}
				}
			}
		}
	}
	JOINT LowerBack
	{
		OFFSET 0.000000 0.000000 0.000000
		CHANNELS 3 Zrotation Yrotation Xrotation
		JOINT Spine
		{
			OFFSET 0.028270 2.035590 -0.193380
			CHANNELS 3 Zrotation Yrotation Xrotation
			JOINT Spine1
			{
				OFFSET 0.056720 2.048850 -0.042750
				CHANNELS 3 Zrotation Yrotation Xrotation
				JOINT Neck
				{
					OFFSET 0.000000 0.000000 0.000000
					CHANNELS 3 Zrotation Yrotation Xrotation
					JOINT Neck1
					{
						OFFSET -0.054170 1.746240 0.172020
						CHANNELS 3 Zrotation Yrotation Xrotation
						JOINT Head
						{
							OFFSET 0.104070 1.761360 -0.123970
							CHANNELS 3 Zrotation Yrotation Xrotation
							End Site
							{
								OFFSET 0.000000 0.000000 0.000000
							}
						}
					}
				}
				JOINT LeftShoulder
				{
					OFFSET 0.000000 0.000000 0.000000
					CHANNELS 3 Zrotation Yrotation Xrotation
					JOINT LeftArm
					{
						OFFSET 3.362410 1.200890 -0.311210
						CHANNELS 3 Zrotation Yrotation Xrotation
						JOINT LeftForeArm
						{
							OFFSET 4.983000 -0.000000 -0.000000
							CHANNELS 3 Zrotation Yrotation Xrotation
							JOINT LeftHand
							{
								OFFSET 3.483560 -0.000000 -0.000000
								CHANNELS 3 Zrotation Yrotation Xrotation
								JOINT LeftFingerBase
								{
									OFFSET 0.000000 0.000000 0.000000
									CHANNELS 3 Zrotation Yrotation Xrotation
									JOINT LeftHandIndex1
									{
										OFFSET 0.715260 -0.000000 -0.000000
										CHANNELS 3 Zrotation Yrotation Xrotation
										End Site
										{
											OFFSET 0.000000 0.000000 0.000000
										}
									}
								}
								JOINT LThumb
								{
									OFFSET 0.000000 0.000000 0.000000
									CHANNELS 3 Zrotation Yrotation Xrotation
									End Site
									{
										OFFSET 0.000000 0.000000 0.000000
									}
								}
							}
						}
					}
				}
				JOINT RightShoulder
				{
					OFFSET 0.000000 0.000000 0.000000
					CHANNELS 3 Zrotation Yrotation Xrotation
					JOINT RightArm
					{
						OFFSET -3.136600 1.374050 -0.404650
						CHANNELS 3 Zrotation Yrotation Xrotation
						JOINT RightForeArm
						{
							OFFSET -5.241900 -0.000000 -0.000000
							CHANNELS 3 Zrotation Yrotation Xrotation
							JOINT RightHand
							{
								OFFSET -3.444170 -0.000000 -0.000000
								CHANNELS 3 Zrotation Yrotation Xrotation
								JOINT RightFingerBase
								{
									OFFSET 0.000000 0.000000 0.000000
									CHANNELS 3 Zrotation Yrotation Xrotation
									JOINT RightHandIndex1
									{
										OFFSET -0.622530 -0.000000 -0.000000
										CHANNELS 3 Zrotation Yrotation Xrotation
										End Site
										{
											OFFSET 0.000000 0.000000 0.000000
										}
									}
								}
								JOINT RThumb
								{
									OFFSET 0.000000 0.000000 0.000000
									CHANNELS 3 Zrotation Yrotation Xrotation
									End Site
									{
										OFFSET 0.000000 0.000000 0.000000
									}
								}
							}
						}
					}
				}
			}
		}
	}
}
MOTION
Frames: 11
Frame Time: 0.008333
2.045120 15.790928 -0.785338 114.270726 -85.285012 -73.502007 -8.175032 -2.163679 -0.321656 -13.922414 -3.932835 -83.304944 0.689539 5.278498 66.961182 3.739040 18.990388 2.867141 4.638400 0.000000 -51.273400 8.513309 1.439777 1.058220 10.482552 4.020537 -73.542361 1.519980 -4.635979 54.280843 -2.963531 -6.451484 -21.830922 1.465500 0.000000 -47.779300 0.524340 -2.753932 2.365207 -0.493956 -2.715567 -2.537375 -5.238895 -2.724486 -0.451618 10.837755 -15.319638 -12.793142 -1.294245 0.024877 -1.989469 0.000000 0.000000 0.000000 6.776669 8.265060 3.701593 -68.593082 13.033571 6.269702 -0.693878 -74.735144 -0.015909 2.733871 5.526601 0.132864 -0.093651 0.185488 -0.000000 0.000000 0.000000 0.000000 0.000000 0.000000 0.000000 6.763875 -9.593727 1.146211 72.276067 6.094782 21.202163 179.721972 84.693564 179.954134 -7.076051 3.518164 -0.251486 0.163547 -0.477664 0.000000 0.000000 0.000000 0.000000 0.000000 0.000000 0.000000 
2.044512 15.841174 -0.816579 112.486308 -85.141731 -72.574038 -8.096103 -2.240914 -0.423584 -14.119537 -4.043016 -83.326815 0.929342 5.293915 68.399032 3.841112 20.058552 5.407768 5.668400 -0.000000 -50.817400 8.601920 1.498746 0.913737 10.409159 3.521229 -72.169379 1.535795 -4.547225 53.699043 -2.955144 -6.532334 -21.713600 1.464200 0.000000 -47.949700 0.353618 -2.724836 2.558644 -0.533671 -2.672531 -2.470989 -5.251855 -2.677061 -0.330125 10.844155 -15.474187 -12.661857 -1.279940 0.022752 -1.927709 0.000000 0.000000 0.000000 6.913089 8.421996 3.648202 -68.504056 13.487703 6.591337 -0.738020 -74.088050 -0.014587 2.425177 5.719802 0.122838 -0.091909 0.173209 -0.000000 0.000000 0.000000 0.000000 0.000000 0.000000 0.000000 6.766007 -9.795152 1.043089 72.261246 6.139458 21.425365 179.715667 84.554528 179.954475 -7.074570 3.503945 -0.250371 0.164548 -0.475384 0.000000 0.000000 0.000000 0.000000 0.000000 0.000000 0.000000 
2.043866 15.891740 -0.846931 110.983228 -84.985886 -71.940488 -8.015553 -2.307563 -0.542389 -14.434170 -4.121103 -83.381182 1.144863 5.320671 69.885511 3.922840 20.999569 7.886146 6.699600 -0.000000 -50.075700 8.690987 1.555809 0.771560 10.315978 3.024210 -70.775056 1.549387 -4.454965 53.098385 -2.945550 -6.614258 -21.579927 1.460500 0.000000 -48.146600 0.163306 -2.692690 2.765561 -0.576836 -2.625419 -2.402630 -5.261210 -2.625394 -0.211712 10.839242 -15.630524 -12.529442 -1.266547 0.020552 -1.866489 0.000000 0.000000 0.000000 7.052675 8.594461 3.588500 -68.434029 13.962356 6.875090 -0.775646 -73.568941 -0.013380 2.120309 5.900678 0.111714 -0.090041 0.161506 -0.000000 0.000000 0.000000 0.000000 0.000000 0.000000 0.000000 6.756945 -9.994191 0.939811 72.244698 6.189950 21.638021 179.709472 84.412786 179.954815 -7.071260 3.483210 -0.248858 0.165479 -0.473018 0.000000 0.000000 0.000000 0.000000 0.000000 0.000000 0.000000 
2.043188 15.942203 -0.876157 109.690784 -84.823371 -71.515420 -7.934749 -2.362944 -0.672939 -14.852305 -4.180192 -83.491965 1.339256 5.360839 71.414991 3.976486 21.756110 10.253005 7.677300 -0.000001 -49.116800 8.779284 1.609627 0.635019 10.204035 2.540648 -69.378870 1.560204 -4.359620 52.479325 -2.936590 -6.703683 -21.428024 1.454400 -0.000000 -48.371400 -0.038091 -2.660482 2.978436 -0.621188 -2.577751 -2.334165 -5.266547 -2.573154 -0.097650 10.823587 -15.786503 -12.402156 -1.253557 0.018451 -1.808030 0.000000 0.000000 0.000000 7.189607 8.786124 3.525112 -68.380399 14.458536 7.119124 -0.806206 -73.181561 -0.012315 1.828876 6.062318 0.099890 -0.088138 0.150568 -0.000000 0.000000 0.000000 0.000000 0.000000 0.000000 0.000000 6.734966 -10.188055 0.838098 72.224315 6.249877 21.842931 179.703089 84.266447 179.955211 -7.057474 3.457395 -0.246646 0.166190 -0.470631 0.000000 0.000000 0.000000 0.000000 0.000000 0.000000 0.000000 
2.042482 15.992216 -0.903718 108.431128 -84.666878 -71.103838 -7.855715 -2.408867 -0.805968 -15.344143 -4.245757 -83.688024 1.518714 5.414429 72.981668 3.996735 22.276227 12.474491 8.546200 0.000000 -48.107200 8.864216 1.657531 0.504086 10.087255 2.072159 -67.999622 1.570142 -4.262833 51.841226 -2.929600 -6.803400 -21.259351 1.446299 0.000000 -48.588300 -0.231700 -2.631488 3.188829 -0.662437 -2.533709 -2.268805 -5.268451 -2.524757 0.006463 10.795325 -15.939756 -12.282879 -1.241069 0.016496 -1.753431 0.000000 0.000000 0.000000 7.311574 8.974886 3.460637 -68.343982 14.999261 7.304888 -0.828532 -72.938509 -0.011360 1.555844 6.194927 0.087670 -0.086135 0.140599 -0.000000 0.000000 0.000000 0.000000 0.000000 0.000000 0.000000 6.696248 -10.373348 0.741864 72.194766 6.314768 22.036502 179.696044 84.110520 179.955701 -7.026616 3.428690 -0.243536 0.166578 -0.468328 0.000000 0.000000 0.000000 0.000000 0.000000 0.000000 0.000000 
2.030860 16.036988 -0.913195 98.572504 -84.799786 -61.868087 -7.788525 -2.473015 -0.632448 -15.296663 -5.211198 -84.356293 1.755602 5.388108 74.614628 4.019592 22.635260 14.770263 9.400300 -0.000000 -47.146800 8.921630 1.642132 0.290770 10.524095 1.043177 -66.903627 1.691001 -4.239038 51.161448 -2.927894 -6.841392 -21.199781 1.451800 -0.000001 -48.664600 0.246394 -2.760162 3.125924 -0.528122 -2.675371 -2.261351 -5.237438 -2.666177 0.131519 10.622107 -16.089436 -12.189222 -1.220574 0.014995 -1.701100 0.000000 0.000000 0.000000 7.159088 9.180657 3.397107 -68.343769 15.581297 7.520395 -0.849183 -72.839824 -0.010585 1.304513 6.290250 0.075569 -0.084833 0.133441 -0.000000 0.000000 0.000000 0.000000 0.000000 0.000000 0.000000 6.439468 -10.644225 0.617164 72.014089 6.284534 22.233294 179.686903 83.873974 179.956539 -6.975801 3.398989 -0.239735 0.166435 -0.464017 0.000000 0.000000 0.000000 0.000000 0.000000 0.000000 0.000000 
2.030647 16.085212 -0.938128 97.493995 -84.636949 -61.559756 -7.710622 -2.498830 -0.758714 -15.901767 -5.357738 -84.782803 1.916988 5.471414 76.232613 3.966662 22.580774 16.647414 9.913800 -0.000000 -46.295900 8.998479 1.688111 0.171046 10.381718 0.610704 -65.609668 1.696143 -4.137901 50.497236 -2.927558 -6.971462 -20.997792 1.440400 -0.000001 -48.894200 0.052591 -2.745997 3.325259 -0.567627 -2.645914 -2.201834 -5.233279 -2.632735 0.217057 10.593041 -16.233344 -12.106682 -1.208583 0.013833 -1.661332 0.000000 0.000000 0.000000 7.260335 9.392548 3.338184 -68.326010 16.162134 7.617664 -0.856387 -72.852938 -0.009795 1.077517 6.337851 0.063754 -0.082792 0.125962 -0.000000 0.000000 0.000000 0.000000 0.000000 0.000000 0.000000 6.394358 -10.807412 0.535196 71.957257 6.364116 22.395707 179.677459 83.681862 179.957220 -6.906559 3.374380 -0.235729 0.166111 -0.462313 0.000000 0.000000 0.000000 0.000000 0.000000 0.000000 0.000000 
2.031064 16.131965 -0.961562 96.210962 -84.482900 -60.987468 -7.628481 -2.517152 -0.870689 -16.522692 -5.579948 -85.367602 2.079865 5.566376 77.858071 3.879028 22.218387 18.365384 10.211000 -0.000000 -45.743700 9.072941 1.733810 0.057236 10.238180 0.200598 -64.387015 1.700331 -4.038867 49.827553 -2.931665 -7.117980 -20.783331 1.427601 0.000000 -49.114400 -0.127538 -2.740189 3.510613 -0.603032 -2.625602 -2.148039 -5.227962 -2.608757 0.290007 10.570164 -16.369916 -12.047052 -1.196711 0.013165 -1.630394 0.000000 0.000000 0.000000 7.348600 9.603442 3.285349 -68.319640 16.761599 7.666603 -0.856419 -72.983238 -0.009032 0.871917 6.330022 0.052541 -0.080650 0.119951 -0.000000 0.000000 0.000000 0.000000 0.000000 0.000000 0.000000 6.350043 -10.955250 0.463528 71.880649 6.441561 22.531609 179.666240 83.460571 179.957950 -6.823237 3.356046 -0.231724 0.165565 -0.461133 0.000000 0.000000 0.000000 0.000000 0.000000 0.000000 0.000000 
2.032137 16.176919 -0.983622 94.679393 -84.336524 -60.096079 -7.539841 -2.529823 -0.963630 -17.139621 -5.898254 -86.125178 2.246564 5.670660 79.471310 3.759976 21.555167 19.948804 10.288800 -0.000000 -45.602800 9.144769 1.780785 -0.053630 10.099847 -0.192916 -63.247784 1.704805 -3.943462 49.158401 -2.939491 -7.276186 -20.559834 1.413100 -0.000001 -49.320600 -0.293777 -2.742668 3.682019 -0.634740 -2.614352 -2.100257 -5.222695 -2.594146 0.348637 10.559088 -16.497557 -12.011209 -1.185158 0.013003 -1.608639 0.000000 0.000000 0.000000 7.426876 9.804018 3.240179 -68.326517 17.375480 7.666014 -0.849900 -73.216415 -0.008261 0.685468 6.262227 0.041832 -0.078354 0.115474 -0.000000 0.000000 0.000000 0.000000 0.000000 0.000000 0.000000 6.312507 -11.085570 0.403694 71.781616 6.508512 22.631838 179.653036 83.203892 179.958669 -6.733778 3.346254 -0.228020 0.164953 -0.460612 0.000000 0.000000 0.000000 0.000000 0.000000 0.000000 0.000000 
2.034254 16.219857 -1.004434 92.881991 -84.195374 -58.866012 -7.442659 -2.538464 -1.035466 -17.736947 -6.324865 -87.061141 2.417332 5.782229 81.048149 3.613044 20.605340 21.415417 10.150100 -0.000000 -45.822500 9.213576 1.830941 -0.165947 9.972730 -0.578439 -62.199500 1.710982 -3.853305 48.497074 -2.949420 -7.437847 -20.331785 1.396700 -0.000000 -49.503200 -0.448279 -2.752257 3.843376 -0.663730 -2.610822 -2.057984 -5.218655 -2.587491 0.391343 10.564516 -16.615251 -11.998402 -1.174159 0.013323 -1.595880 0.000000 0.000000 0.000000 7.500705 9.983731 3.203628 -68.350066 17.997751 7.614886 -0.837619 -73.535226 -0.007469 0.515717 6.133965 0.031925 -0.075853 0.112526 -0.000000 0.000000 0.000000 0.000000 0.000000 0.000000 0.000000 6.286817 -11.196727 0.356768 71.659208 6.556060 22.687841 179.637819 82.907830 179.959306 -6.648096 3.345621 -0.225215 0.164456 -0.460836 0.000000 0.000000 0.000000 0.000000 0.000000 0.000000 0.000000 
2.037700 16.260550 -1.024247 90.835215 -84.054926 -57.313588 -7.335084 -2.543909 -1.085108 -18.302071 -6.866490 -88.171479 2.589674 5.898252 82.554626 3.443277 19.400336 22.794983 9.814200 0.000000 -46.406900 9.279156 1.885973 -0.284666 9.861935 -0.967754 -61.246231 1.720409 -3.770043 47.851343 -2.959106 -7.592310 -20.102621 1.377800 -0.000000 -49.665600 -0.595675 -2.767149 3.999835 -0.691594 -2.612980 -2.020454 -5.217096 -2.586671 0.416675 10.589895 -16.721417 -12.005894 -1.164105 0.014052 -1.591323 0.000000 0.000000 0.000000 7.576498 10.130948 3.176184 -68.394067 18.623669 7.512288 -0.820490 -73.920556 -0.006644 0.361493 5.949743 0.022920 -0.073126 0.111017 -0.000000 0.000000 0.000000 0.000000 0.000000 0.000000 0.000000 6.277202 -11.286853 0.323252 71.514590 6.574552 22.691832 179.620743 82.570208 179.959779 -6.577489 3.353996 -0.223308 0.164276 -0.461853 0.000000 0.000000 0.000000 0.000000 0.000000 0.000000 0.000000 
